<svg aria-hidden="true" style="width:0;height:0;position:absolute;overflow:hidden" xmlns="http://www.w3.org/2000/svg"><defs><symbol id="icon-airbnb-logo" viewBox="0 0 101 32"><path fill="#ff5a5f" style="fill:var(--color1,#ff5a5f)" d="M52.952 7.91a2.04 2.04 0 1 1-4.08 0c0-1.135.879-2.048 2.04-2.048 1.161.032 2.04.945 2.04 2.048zm-8.412 4.128v.504s-.973-1.261-3.045-1.261c-3.421 0-6.089 2.616-6.089 6.24 0 3.593 2.637 6.24 6.089 6.24 2.103 0 3.045-1.292 3.045-1.292v.536a.43.43 0 0 0 .439.441h2.542V11.597h-2.542a.45.45 0 0 0-.439.441zm0 7.595c-.471.693-1.412 1.292-2.542 1.292-2.009 0-3.547-1.261-3.547-3.403s1.538-3.403 3.547-3.403c1.099 0 2.103.63 2.542 1.292v4.223zm4.865-8.036h3.013v11.849h-3.013V11.597zm45.011-.315c-2.072 0-3.045 1.261-3.045 1.261V5.894h-3.013v17.553h2.543a.45.45 0 0 0 .44-.441v-.536s.973 1.292 3.045 1.292c3.421 0 6.089-2.647 6.089-6.24s-2.668-6.24-6.058-6.24zm-.503 9.611c-1.162 0-2.072-.599-2.543-1.292v-4.223c.471-.63 1.475-1.292 2.543-1.292 2.009 0 3.547 1.261 3.547 3.403s-1.538 3.403-3.547 3.403zm-7.125-4.475v7.059h-3.013v-6.712c0-1.954-.628-2.742-2.323-2.742-.91 0-1.852.473-2.448 1.166v8.256h-3.013V11.596h2.385a.45.45 0 0 1 .439.441v.504c.879-.914 2.04-1.261 3.202-1.261 1.318 0 2.417.378 3.296 1.135 1.067.882 1.475 2.017 1.475 4.002zm-18.111-5.136c-2.072 0-3.045 1.261-3.045 1.261V5.894h-3.013v17.553h2.542a.45.45 0 0 0 .44-.441v-.536s.973 1.292 3.045 1.292c3.421 0 6.089-2.647 6.089-6.24.031-3.592-2.637-6.24-6.058-6.24zm-.502 9.611c-1.162 0-2.072-.599-2.543-1.292v-4.223c.471-.63 1.475-1.292 2.543-1.292 2.009 0 3.547 1.261 3.547 3.403s-1.538 3.403-3.547 3.403zm-8.161-9.611c.91 0 1.381.158 1.381.158v2.805s-2.511-.851-4.081.945v8.288h-3.013v-11.88h2.542a.45.45 0 0 1 .439.441v.504c.565-.662 1.789-1.261 2.731-1.261zM28.72 22.374c-.157-.378-.314-.788-.471-1.134-.251-.567-.502-1.103-.722-1.607l-.031-.032a330.059 330.059 0 0 0-6.937-14.244l-.094-.189c-.251-.473-.502-.977-.753-1.481-.314-.567-.628-1.166-1.13-1.733C17.578.693 16.134 0 14.596 0c-1.569 0-2.982.693-4.018 1.891-.471.567-.816 1.166-1.13 1.733-.251.504-.502 1.008-.753 1.481l-.094.189c-2.417 4.727-4.771 9.517-6.937 14.244l-.031.063c-.22.504-.471 1.04-.722 1.607-.157.347-.314.725-.471 1.134-.408 1.166-.534 2.269-.377 3.403a6.692 6.692 0 0 0 4.08 5.231 6.418 6.418 0 0 0 2.542.504 8.283 8.283 0 0 0 3.955-1.134c1.287-.725 2.511-1.765 3.892-3.277 1.381 1.513 2.637 2.553 3.892 3.277a8.265 8.265 0 0 0 3.955 1.134c.879 0 1.758-.158 2.542-.504 2.197-.882 3.735-2.899 4.08-5.231.251-1.103.126-2.206-.282-3.372zm-14.156 1.639c-1.695-2.143-2.794-4.16-3.17-5.861-.157-.725-.188-1.355-.094-1.922.063-.504.251-.945.502-1.324.596-.851 1.601-1.387 2.762-1.387s2.197.504 2.762 1.387c.251.378.439.819.502 1.324.094.567.063 1.229-.094 1.922-.377 1.67-1.475 3.687-3.17 5.861zm12.524 1.481a4.68 4.68 0 0 1-2.856 3.687c-.753.315-1.569.41-2.386.315-.785-.095-1.569-.347-2.386-.819-1.13-.63-2.26-1.607-3.578-3.057 2.072-2.553 3.327-4.885 3.798-6.964.22-.977.251-1.859.157-2.679a5.122 5.122 0 0 0-.848-2.143c-.973-1.418-2.605-2.237-4.426-2.237s-3.453.851-4.426 2.237a5.12 5.12 0 0 0-.847 2.143 6.565 6.565 0 0 0 .157 2.679c.471 2.08 1.758 4.443 3.798 6.996-1.287 1.45-2.448 2.427-3.578 3.057-.816.473-1.601.725-2.386.819a5.002 5.002 0 0 1-2.385-.315 4.677 4.677 0 0 1-2.856-3.687 5.237 5.237 0 0 1 .283-2.458c.094-.315.251-.63.408-1.008.22-.504.471-1.04.722-1.576l.031-.063a345.506 345.506 0 0 1 6.905-14.149l.094-.189c.251-.473.502-.977.753-1.45.251-.504.534-.977.879-1.387.659-.756 1.538-1.166 2.511-1.166s1.852.41 2.511 1.166c.345.41.628.882.879 1.387.251.473.502.977.753 1.45l.094.189a418.198 418.198 0 0 1 6.874 14.181v.032c.251.504.471 1.071.722 1.576.157.378.314.693.408 1.008.251.819.345 1.607.22 2.427z"/></symbol><symbol id="icon-amazon-logo" viewBox="0 0 106 32"><path fill="#f90" style="fill:var(--color2,#f90)" d="M65.349 24.795c-6.121 4.507-14.994 6.911-22.633 6.911-10.711 0-20.354-3.957-27.649-10.538-.573-.518-.06-1.223.628-.82 7.873 4.575 17.607 7.328 27.663 7.328 6.782 0 14.242-1.401 21.101-4.31 1.036-.44 1.903.678.89 1.429z"/><path fill="#f90" style="fill:var(--color2,#f90)" d="M67.894 21.887c-.779-.998-5.172-.472-7.144-.238-.601.073-.692-.449-.151-.824 3.499-2.459 9.239-1.75 9.909-.925.669.829-.174 6.577-3.462 9.32-.504.421-.986.197-.761-.362.738-1.841 2.393-5.968 1.609-6.971z"/><path style="fill:var(--color3,#000)" d="M60.888 3.462V1.071a.59.59 0 0 1 .605-.605h10.716c.344 0 .619.247.619.605v2.047c-.005.344-.293.792-.807 1.502l-5.553 7.919c2.063-.05 4.241.256 6.112 1.31.422.238.536.586.569.93v2.551c0 .348-.385.756-.789.545-3.297-1.727-7.676-1.914-11.321.018-.371.202-.761-.202-.761-.55V14.92c0-.389.005-1.053.394-1.644l6.433-9.215h-5.599c-.344 0-.619-.243-.619-.6zm-39.09 14.917h-3.26a.615.615 0 0 1-.582-.554V1.113c0-.334.28-.6.628-.6h3.04a.614.614 0 0 1 .592.559v2.185h.06c.793-2.111 2.283-3.096 4.292-3.096 2.04 0 3.315.985 4.232 3.096.789-2.111 2.581-3.096 4.503-3.096 1.366 0 2.861.563 3.774 1.827 1.032 1.406.821 3.449.821 5.239l-.005 10.547c0 .334-.28.605-.628.605h-3.256a.62.62 0 0 1-.587-.605V8.917c0-.705.064-2.464-.092-3.133-.243-1.122-.972-1.438-1.917-1.438-.789 0-1.614.527-1.949 1.369s-.303 2.253-.303 3.201v8.857c0 .334-.28.605-.628.605h-3.256a.616.616 0 0 1-.587-.605l-.005-8.857c0-1.864.307-4.607-2.008-4.607-2.343 0-2.251 2.675-2.251 4.607v8.857c0 .334-.28.605-.628.605zM82.053.16c4.837 0 7.455 4.149 7.455 9.425 0 5.097-2.893 9.141-7.455 9.141-4.751 0-7.337-4.149-7.337-9.32 0-5.203 2.619-9.247 7.337-9.247zm.028 3.412c-2.403 0-2.554 3.27-2.554 5.308 0 2.043-.032 6.403 2.526 6.403 2.526 0 2.646-3.517 2.646-5.661 0-1.411-.06-3.096-.486-4.433-.367-1.163-1.096-1.617-2.132-1.617zm13.7 14.807h-3.246a.62.62 0 0 1-.587-.605l-.004-16.717a.617.617 0 0 1 .628-.545h3.021a.625.625 0 0 1 .583.467v2.556h.06C97.148 1.25 98.428.16 100.679.16c1.463 0 2.889.527 3.806 1.969.853 1.337.853 3.586.853 5.203v10.52c-.036.293-.307.527-.628.527h-3.269c-.298-.023-.546-.243-.578-.527V8.775c0-1.827.211-4.502-2.041-4.502-.793 0-1.523.531-1.884 1.337-.458 1.021-.519 2.038-.519 3.165v8.999a.627.627 0 0 1-.637.605zm-43.436-7.983c0 1.269.032 2.327-.61 3.453-.518.916-1.343 1.479-2.256 1.479-1.252 0-1.985-.953-1.985-2.359 0-2.775 2.49-3.279 4.851-3.279v.705zm3.288 7.937a.682.682 0 0 1-.77.078c-1.082-.898-1.279-1.314-1.871-2.171-1.788 1.823-3.058 2.368-5.374 2.368-2.747 0-4.879-1.69-4.879-5.075 0-2.643 1.431-4.442 3.476-5.322 1.77-.779 4.241-.916 6.131-1.131v-.421c0-.774.06-1.69-.399-2.359-.394-.6-1.155-.847-1.83-.847-1.243 0-2.348.637-2.618 1.956-.055.293-.27.582-.569.595l-3.159-.339c-.266-.06-.564-.275-.486-.682C44.009 1.154 47.476 0 50.576 0c1.587 0 3.659.421 4.911 1.621 1.587 1.479 1.435 3.453 1.435 5.601v5.075c0 1.525.633 2.194 1.229 3.018.206.293.252.646-.014.866-.665.554-1.848 1.585-2.499 2.162l-.005-.009zM9.606 10.396c0 1.269.032 2.327-.61 3.453-.518.916-1.339 1.479-2.256 1.479-1.252 0-1.981-.953-1.981-2.359 0-2.775 2.49-3.279 4.847-3.279v.705zm3.288 7.937a.682.682 0 0 1-.77.078c-1.082-.898-1.275-1.314-1.871-2.171-1.788 1.823-3.054 2.368-5.374 2.368-2.742 0-4.879-1.69-4.879-5.075 0-2.643 1.435-4.442 3.476-5.322 1.77-.779 4.241-.916 6.13-1.131v-.421c0-.774.06-1.69-.394-2.359-.399-.6-1.16-.847-1.829-.847-1.243 0-2.352.637-2.623 1.956-.055.293-.271.582-.564.595l-3.164-.339c-.266-.06-.559-.275-.486-.682C1.275 1.154 4.737 0 7.837 0c1.586 0 3.659.421 4.911 1.621 1.586 1.479 1.435 3.453 1.435 5.601v5.075c0 1.525.633 2.194 1.229 3.018.211.293.257.646-.009.866-.665.554-1.848 1.585-2.499 2.162l-.009-.009z"/></symbol><symbol id="icon-box-search" viewBox="0 0 32 32"><path fill="#2639ed" style="fill:var(--color4,#2639ed)" d="M15.999 17.733a1 1 0 0 1-.507-.133L3.719 10.787c-.48-.28-.64-.893-.36-1.373s.88-.64 1.373-.36l11.267 6.52 11.2-6.48a1.013 1.013 0 0 1 1.373.36c.28.48.107 1.093-.36 1.373L16.519 17.6c-.173.08-.347.133-.52.133z"/><path fill="#2639ed" style="fill:var(--color4,#2639ed)" d="M16 29.813c-.547 0-1-.453-1-1V16.72c0-.547.453-1 1-1s1 .453 1 1v12.093c0 .547-.453 1-1 1z"/><path fill="#2639ed" style="fill:var(--color4,#2639ed)" d="M15.999 30.334c-1.213 0-2.373-.28-3.253-.773l-7.12-3.947c-1.933-1.067-3.453-3.64-3.453-5.854v-7.547c0-2.213 1.52-4.773 3.453-5.853l7.12-3.947c1.813-1.013 4.667-1.013 6.493 0l7.12 3.947c1.933 1.067 3.453 3.64 3.453 5.853v4.88c0 .547-.453 1-1 1s-1-.453-1-1v-4.88c0-1.467-1.133-3.387-2.413-4.093l-7.12-3.947c-1.213-.68-3.333-.68-4.547 0L6.612 8.12c-1.293.72-2.413 2.627-2.413 4.093v7.547c0 1.467 1.133 3.387 2.413 4.093l7.12 3.947c1.173.653 3.387.653 4.547 0 .48-.267 1.093-.093 1.36.387s.093 1.093-.387 1.36c-.88.507-2.04.787-3.253.787z"/><path fill="#2639ed" style="fill:var(--color4,#2639ed)" d="M25.6 29.533c-2.907 0-5.267-2.36-5.267-5.267s2.36-5.267 5.267-5.267 5.267 2.36 5.267 5.267a5.27 5.27 0 0 1-5.267 5.267zm0-8.533c-1.8 0-3.267 1.467-3.267 3.267s1.467 3.267 3.267 3.267c1.8 0 3.267-1.467 3.267-3.267S27.4 21 25.6 21z"/><path fill="#2639ed" style="fill:var(--color4,#2639ed)" d="M30.666 30.333a.99.99 0 0 1-.707-.293l-1.333-1.333c-.387-.387-.387-1.027 0-1.413s1.027-.387 1.413 0l1.333 1.333a1.005 1.005 0 0 1 0 1.413c-.2.2-.453.293-.707.293z"/></symbol><symbol id="icon-chart-square" viewBox="0 0 32 32"><path fill="#00da71" style="fill:var(--color5,#00da71)" d="M13.48 24.2H8.427c-.547 0-1-.453-1-1v-6.827a2.526 2.526 0 0 1 2.52-2.52h3.533c.547 0 1 .453 1 1v8.333a1.01 1.01 0 0 1-1 1.014zm-4.053-2h3.053v-6.333H9.947a.52.52 0 0 0-.52.52v5.814z"/><path fill="#00da71" style="fill:var(--color5,#00da71)" d="M18.519 24.2h-5.053c-.547 0-1-.453-1-1V10.32a2.526 2.526 0 0 1 2.52-2.52h2.027a2.526 2.526 0 0 1 2.52 2.52V23.2c-.013.547-.453 1-1.013 1zm-4.04-2h3.053V10.32a.52.52 0 0 0-.52-.52h-2.027a.52.52 0 0 0-.52.52V22.2h.013z"/><path fill="#00da71" style="fill:var(--color5,#00da71)" d="M23.574 24.2h-5.053c-.547 0-1-.453-1-1v-6.067c0-.547.453-1 1-1h3.533a2.526 2.526 0 0 1 2.52 2.52V23.2c0 .547-.44 1-1 1zm-4.053-2h3.053v-3.547a.52.52 0 0 0-.52-.52h-2.533V22.2z"/><path fill="#00da71" style="fill:var(--color5,#00da71)" d="M20 30.333h-8C4.76 30.333 1.667 27.24 1.667 20v-8C1.667 4.76 4.76 1.667 12 1.667h8c7.24 0 10.333 3.093 10.333 10.333v8c0 7.24-3.093 10.333-10.333 10.333zM12 3.667c-6.147 0-8.333 2.187-8.333 8.333v8c0 6.147 2.187 8.333 8.333 8.333h8c6.147 0 8.333-2.187 8.333-8.333v-8c0-6.147-2.187-8.333-8.333-8.333h-8z"/></symbol><symbol id="icon-code" viewBox="0 0 32 32"><path fill="#ff007a" style="fill:var(--color6,#ff007a)" d="M12.001 23.667c-.147 0-.307-.04-.44-.107a6.688 6.688 0 0 1-2.547-2.253 2.358 2.358 0 0 1 0-2.627 6.549 6.549 0 0 1 2.547-2.24c.493-.253 1.093-.04 1.347.453s.053 1.093-.453 1.347c-.72.36-1.333.907-1.773 1.573-.08.12-.08.28 0 .413a4.585 4.585 0 0 0 1.773 1.573c.493.253.693.853.453 1.347a1.07 1.07 0 0 1-.907.52zm8.278-.001c-.373 0-.72-.2-.893-.547a.995.995 0 0 1 .453-1.347 4.593 4.593 0 0 0 1.773-1.573c.08-.12.08-.28 0-.413a4.585 4.585 0 0 0-1.773-1.573 1.017 1.017 0 0 1-.453-1.347 1.017 1.017 0 0 1 1.347-.453 6.688 6.688 0 0 1 2.547 2.253c.533.8.533 1.827 0 2.627a6.549 6.549 0 0 1-2.547 2.24.884.884 0 0 1-.453.133z"/><path fill="#ff007a" style="fill:var(--color6,#ff007a)" d="M20 30.333h-8C4.76 30.333 1.667 27.24 1.667 20v-8C1.667 4.76 4.76 1.667 12 1.667h8c7.24 0 10.333 3.093 10.333 10.333v8c0 7.24-3.093 10.333-10.333 10.333zM12 3.667c-6.147 0-8.333 2.187-8.333 8.333v8c0 6.147 2.187 8.333 8.333 8.333h8c6.147 0 8.333-2.187 8.333-8.333v-8c0-6.147-2.187-8.333-8.333-8.333h-8z"/><path fill="#ff007a" style="fill:var(--color6,#ff007a)" d="M2.974 11.68c-.547 0-1-.453-1-1s.44-1 1-1l25.627-.013c.547 0 1 .453 1 1s-.44 1-1 1l-25.627.013z"/></symbol><symbol id="icon-company-logo" viewBox="0 0 183 32"><path d="M29.984 30.476 19.353 2.884H11.99L1.317 30.476h6.701l1.737-4.674h11.831l1.696 4.674h6.702zm-10.01-9.845H11.37l4.302-11.872 4.302 11.872zm29.477-2.482v-3.268h-7.405V6.814h-3.599v8.067h-7.446v3.268h7.446v8.398h3.599v-8.398h7.405zm24.588 12.575c5.13 0 9.846-2.896 9.846-8.274 0-5.502-4.178-6.825-9.101-8.77-3.682-1.406-6.329-2.441-6.288-5.254s2.482-4.302 5.254-4.302c2.192 0 4.716 1.034 7.074 2.978l2.192-2.854C80.244 2.014 77.018.815 73.75.815c-5.047 0-8.977 3.392-8.977 7.777 0 5.171 4.426 7.032 8.77 8.646 3.93 1.489 6.577 2.358 6.577 5.626 0 2.854-2.441 4.509-6.04 4.509-2.854 0-5.998-1.324-8.108-3.971l-2.316 2.772c2.937 3.144 6.701 4.55 10.383 4.55zm20.686 0c2.399 0 3.764-.579 4.881-1.241l-.869-2.937c-.993.538-2.234 1.034-3.433 1.034-1.903 0-2.441-1.158-2.441-3.599V13.226h6.66V10.33h-6.66V3.091l-3.351.372v6.867h-2.606v2.896h2.606v11.252c0 4.054 1.655 6.246 5.212 6.246zm16.395 0c2.647 0 5.13-1.324 6.66-3.723h.041v3.475h3.351V10.33h-3.351v9.763c0 4.798-2.772 7.57-5.998 7.57-3.185 0-4.923-1.737-4.923-6.288V10.33h-3.351v11.996c0 5.75 2.937 8.398 7.57 8.398zm24.677 0c3.268 0 5.833-1.531 7.281-3.971h.041v3.723h3.227V.03h-3.351v13.899h-.041c-1.53-2.441-4.137-3.847-7.198-3.847-5.667 0-9.845 4.509-9.845 10.466 0 6.122 4.302 10.176 9.887 10.176zm.455-3.061c-4.095 0-6.908-3.061-6.908-7.115 0-4.468 3.102-7.405 6.95-7.405 4.054 0 6.826 3.268 6.826 7.405 0 4.261-3.061 7.115-6.867 7.115zm18.296-21.014c1.365 0 2.441-1.076 2.441-2.399s-1.076-2.399-2.441-2.399c-1.365 0-2.441 1.076-2.441 2.399s1.075 2.399 2.441 2.399zm-1.696 3.681v20.146h3.351V10.33h-3.351zm19.034 20.394c5.957 0 10.383-4.178 10.383-10.3s-4.427-10.342-10.383-10.342c-6.246 0-10.424 4.55-10.424 10.342s4.178 10.3 10.424 10.3zm0-3.061c-4.178 0-6.991-3.227-6.991-7.239s2.772-7.281 6.991-7.281c3.889 0 6.95 2.978 6.95 7.281s-3.102 7.239-6.95 7.239z"/></symbol><symbol id="icon-ellipse" viewBox="0 0 32 32"><path fill="#e7f0fc" style="fill:var(--color7,#e7f0fc)" d="M32 16c0 8.837-7.163 16-16 16S0 24.837 0 16 7.163 0 16 0s16 7.163 16 16z"/></symbol><symbol id="icon-empty-wallet" viewBox="0 0 32 32"><path fill="#f90" style="fill:var(--color2,#f90)" d="M23.653 30.333H8.346a6.014 6.014 0 0 1-6.013-6.013v-8.973a6.014 6.014 0 0 1 6.013-6.013h15.307a6.014 6.014 0 0 1 6.013 6.013v1.92c0 .547-.453 1-1 1h-2.693c-.467 0-.893.173-1.2.493l-.013.013c-.373.36-.547.853-.507 1.36.08.88.92 1.587 1.88 1.587h2.533c.547 0 1 .453 1 1v1.587a6.018 6.018 0 0 1-6.013 6.027zm-15.306-19a4.017 4.017 0 0 0-4.013 4.013v8.973c0 2.213 1.8 4.013 4.013 4.013h15.307c2.213 0 4.013-1.8 4.013-4.013v-.587h-1.533c-2.013 0-3.72-1.493-3.88-3.413a3.648 3.648 0 0 1 1.093-2.96 3.646 3.646 0 0 1 2.627-1.093h1.693v-.92c0-2.213-1.8-4.013-4.013-4.013H8.347z"/><path fill="#f90" style="fill:var(--color2,#f90)" d="M3.333 17.547c-.547 0-1-.453-1-1v-6.093A4.836 4.836 0 0 1 5.44 5.961l10.587-4a3.49 3.49 0 0 1 3.253.4 3.526 3.526 0 0 1 1.52 2.907v5.067c0 .547-.453 1-1 1s-1-.453-1-1V5.268c0-.507-.24-.973-.667-1.267s-.933-.36-1.413-.173l-10.587 4a2.832 2.832 0 0 0-1.813 2.627v6.093a.98.98 0 0 1-.987 1zm22.801 6.187c-2.013 0-3.72-1.493-3.88-3.413a3.657 3.657 0 0 1 1.093-2.973 3.637 3.637 0 0 1 2.613-1.08h2.773c1.32.04 2.333 1.08 2.333 2.36v2.747a2.36 2.36 0 0 1-2.293 2.36h-2.64zm2.573-5.467h-2.733c-.467 0-.893.173-1.2.493a1.68 1.68 0 0 0-.52 1.387c.08.88.92 1.587 1.88 1.587h2.613c.173 0 .333-.16.333-.36v-2.747c0-.2-.16-.347-.373-.36z"/><path fill="#f90" style="fill:var(--color2,#f90)" d="M18.667 17H9.334c-.547 0-1-.453-1-1s.453-1 1-1h9.333c.547 0 1 .453 1 1s-.453 1-1 1z"/></symbol><symbol id="icon-facebook" viewBox="0 0 32 32"><path fill="#3b5998" style="fill:var(--color8,#3b5998)" d="M16 32c8.837 0 16-7.163 16-16S24.837 0 16 0 0 7.163 0 16s7.163 16 16 16z"/><path fill="#fff" style="fill:var(--color9,#fff)" d="M20.022 16.626h-2.855v10.459h-4.326V16.626h-2.057V12.95h2.057v-2.379c0-1.701.808-4.365 4.364-4.365l3.204.013v3.568h-2.325c-.381 0-.918.191-.918 1.002v2.163h3.233l-.378 3.672z"/></symbol><symbol id="icon-google-logo" viewBox="0 0 97 32"><path fill="#ff302f" style="fill:var(--color10,#ff302f)" d="m93.309 19.313 2.671 1.781c-.867 1.277-2.941 3.469-6.527 3.469-4.452 0-7.769-3.445-7.769-7.828 0-4.664 3.352-7.828 7.394-7.828 4.067 0 6.058 3.234 6.703 4.98l.351.891-10.476 4.336c.797 1.57 2.039 2.367 3.796 2.367s2.977-.867 3.855-2.168zm-8.214-2.824 6.996-2.906c-.387-.973-1.535-1.664-2.906-1.664-1.746 0-4.172 1.547-4.09 4.57z"/><path fill="#20b15a" style="fill:var(--color11,#20b15a)" d="M76.635.928h3.375v22.92h-3.375V.928z"/><path fill="#3686f7" style="fill:var(--color12,#3686f7)" d="M71.315 9.517h3.258v13.921c0 5.777-3.41 8.156-7.441 8.156-3.797 0-6.082-2.555-6.937-4.629l2.988-1.242c.539 1.277 1.84 2.789 3.949 2.789 2.589 0 4.183-1.605 4.183-4.605v-1.125h-.117c-.773.937-2.25 1.781-4.125 1.781-3.914 0-7.499-3.41-7.499-7.804 0-4.418 3.586-7.863 7.499-7.863 1.864 0 3.352.832 4.125 1.746h.117V9.517zm.234 7.242c0-2.765-1.84-4.781-4.184-4.781-2.367 0-4.359 2.015-4.359 4.781 0 2.73 1.992 4.711 4.359 4.711 2.344.012 4.184-1.98 4.184-4.711z"/><path fill="#ff302f" style="fill:var(--color10,#ff302f)" d="M41.047 16.7c0 4.511-3.515 7.828-7.828 7.828S25.391 21.2 25.391 16.7c0-4.535 3.515-7.839 7.828-7.839s7.828 3.304 7.828 7.839zm-3.421 0c0-2.812-2.039-4.746-4.406-4.746s-4.406 1.933-4.406 4.746c0 2.789 2.039 4.746 4.406 4.746s4.406-1.957 4.406-4.746z"/><path fill="#ffba40" style="fill:var(--color13,#ffba40)" d="M58.144 16.735c0 4.511-3.515 7.828-7.828 7.828s-7.828-3.316-7.828-7.828c0-4.535 3.515-7.828 7.828-7.828s7.828 3.281 7.828 7.828zm-3.434 0c0-2.812-2.039-4.746-4.406-4.746s-4.406 1.933-4.406 4.746c0 2.789 2.039 4.746 4.406 4.746 2.379 0 4.406-1.969 4.406-4.746z"/><path fill="#3686f7" style="fill:var(--color12,#3686f7)" d="M12.526 21.129c-4.91 0-8.753-3.961-8.753-8.87s3.843-8.87 8.753-8.87c2.648 0 4.582 1.043 6.011 2.379l2.355-2.355C18.9 1.503 16.24.05 12.525.05 5.799.05.139 5.534.139 12.26s5.66 12.21 12.386 12.21c3.633 0 6.375-1.195 8.519-3.422 2.203-2.203 2.883-5.296 2.883-7.804 0-.785-.094-1.594-.199-2.191H12.526v3.258h7.98c-.234 2.039-.879 3.433-1.828 4.383-1.148 1.16-2.965 2.437-6.152 2.437z"/></symbol><symbol id="icon-linkedin" viewBox="0 0 32 32"><path fill="#007ab9" style="fill:var(--color14,#007ab9)" d="M16 32c8.837 0 16-7.163 16-16S24.837 0 16 0 0 7.163 0 16s7.163 16 16 16z"/><path fill="#f1f2f2" style="fill:var(--color15,#f1f2f2)" d="M25.56 17.287v6.596h-3.824v-6.154c0-1.545-.552-2.601-1.937-2.601-1.057 0-1.684.71-1.962 1.398-.101.246-.127.587-.127.932v6.424h-3.825s.051-10.423 0-11.502h3.825v1.63c-.008.013-.018.025-.025.038h.025v-.038c.508-.782 1.415-1.9 3.447-1.9 2.516 0 4.403 1.644 4.403 5.176zM9.884 6.836c-1.308 0-2.164.859-2.164 1.987 0 1.104.831 1.988 2.114 1.988h.025c1.334 0 2.163-.884 2.163-1.988-.025-1.128-.829-1.987-2.138-1.987zM7.947 23.884h3.823V12.381H7.947v11.503z"/></symbol><symbol id="icon-twitter" viewBox="0 0 32 32"><path fill="#55acee" style="fill:var(--color16,#55acee)" d="M16 32c8.836 0 16-7.163 16-16S24.837 0 16 0 0 7.163 0 16s7.163 16 16 16z"/><path fill="#f1f2f2" style="fill:var(--color15,#f1f2f2)" d="M25.801 11.499a7.605 7.605 0 0 1-2.197.601 3.834 3.834 0 0 0 1.682-2.115 7.68 7.68 0 0 1-2.429.928 3.825 3.825 0 0 0-6.516 3.489 10.856 10.856 0 0 1-7.883-3.996 3.825 3.825 0 0 0 1.183 5.106 3.801 3.801 0 0 1-1.732-.479v.049a3.827 3.827 0 0 0 3.068 3.75 3.805 3.805 0 0 1-1.727.066 3.83 3.83 0 0 0 3.573 2.656 7.672 7.672 0 0 1-5.662 1.583 10.822 10.822 0 0 0 5.862 1.718c7.035 0 10.882-5.827 10.882-10.882 0-.166-.004-.331-.011-.495a7.759 7.759 0 0 0 1.909-1.979z"/></symbol><symbol id="icon-uber-eats-logo" viewBox="0 0 191 32"><path fill="#262626" style="fill:var(--color17,#262626)" d="M88.164 12.762c-2.819 0-4.819 2.224-4.819 5.638v12.523h-4.304V8.881h4.252v2.692c.524-.892 1.276-1.627 2.177-2.127s1.918-.749 2.946-.72h1.546v4.037h-1.799zm-12.097 7.14c0-6.573-4.638-11.489-10.916-11.489-1.483.01-2.95.316-4.315.9s-2.603 1.434-3.642 2.502c-1.038 1.068-1.857 2.332-2.409 3.72s-.826 2.872-.807 4.368c0 6.568 5.025 11.536 11.581 11.536 1.831.035 3.644-.375 5.285-1.194s3.064-2.024 4.146-3.514l-3.123-2.307c-.717 1.008-1.665 1.827-2.763 2.385s-2.315.84-3.545.821c-1.752-.008-3.443-.649-4.767-1.806s-2.192-2.754-2.449-4.502h17.735l-.01-1.419zM58.436 17.88c.768-3.362 3.432-5.638 6.664-5.638s5.891 2.276 6.613 5.638H58.436zM40.345 8.413c-1.438.001-2.862.29-4.189.849s-2.531 1.378-3.542 2.409V.65H28.31v30.273h4.252v-2.796a11.013 11.013 0 0 0 7.793 3.31c1.52.033 3.031-.241 4.445-.805s2.701-1.407 3.788-2.479c1.086-1.072 1.949-2.352 2.539-3.765s.893-2.93.893-4.463-.304-3.05-.893-4.463-1.452-2.693-2.539-3.765c-1.086-1.072-2.374-1.915-3.788-2.479s-2.925-.838-4.445-.805h-.01zm-.309 19.148c-1.5.007-2.968-.435-4.219-1.27s-2.226-2.027-2.804-3.422c-.578-1.396-.731-2.933-.441-4.417s1.011-2.847 2.071-3.917c1.06-1.07 2.411-1.799 3.883-2.093s2.996-.142 4.382.439c1.385.581 2.568 1.563 3.398 2.822s1.271 2.739 1.266 4.252c.001.998-.193 1.986-.571 2.907s-.934 1.759-1.634 2.464c-.7.705-1.531 1.263-2.446 1.644s-1.895.574-2.884.572v.021zm-27.574-.208c4.154 0 7.38-3.211 7.38-8.023V.65H24.3v30.273h-4.407V28.06c-1.03 1.073-2.264 1.924-3.629 2.502s-2.832.87-4.313.86C5.545 31.422.612 26.714.612 19.575V.65h4.541v18.706c0 4.838 3.092 7.997 7.308 7.997z"/><path fill="#5fb709" style="fill:var(--color18,#5fb709)" d="M100.667.65h21.064v5.196h-15.374v7.379h14.947v5.02h-14.947v7.503h15.374v5.196h-21.064V.65zm79.238 30.839c6.457 0 10.096-3.118 10.096-7.399 0-3.05-2.154-5.326-6.664-6.313l-4.767-.982c-2.768-.52-3.639-1.039-3.639-2.078 0-1.346 1.335-2.172 3.793-2.172 2.664 0 4.639.722 5.154 3.206h5.586c-.304-4.677-3.639-7.763-10.401-7.763-5.845 0-9.946 2.432-9.946 7.145 0 3.258 2.257 5.378 7.128 6.412l5.329 1.242c2.103.416 2.664.987 2.664 1.865 0 1.398-1.587 2.276-4.154 2.276-3.226 0-5.071-.722-5.787-3.206h-5.618c.819 4.666 4.253 7.768 11.226 7.768zm-12.849-.566h-6.046c-3.793 0-5.896-2.38-5.896-5.383V13.641h-4.253V8.569h4.273V2.204h5.617v6.365h6.304v5.072h-6.304v10.45c0 1.19.819 1.762 2.103 1.762h4.201v5.072zM142.832 8.579v2.016a10.85 10.85 0 0 0-7.077-2.598c-1.551-.033-3.091.247-4.534.822s-2.755 1.435-3.864 2.529a11.744 11.744 0 0 0-2.59 3.841 11.83 11.83 0 0 0 0 9.106 11.744 11.744 0 0 0 2.59 3.841c1.109 1.094 2.422 1.954 3.864 2.529s2.983.855 4.534.822c2.591.011 5.101-.91 7.077-2.598v2.021h5.602V8.566l-5.602.01zm-6.613 18.005c-1.344.015-2.662-.372-3.786-1.114s-2.006-1.804-2.53-3.051a6.884 6.884 0 0 1-.417-3.955c.254-1.331.894-2.556 1.839-3.519s2.153-1.621 3.47-1.891a6.718 6.718 0 0 1 3.927.378 6.8 6.8 0 0 1 3.054 2.518 6.878 6.878 0 0 1 1.145 3.806 6.807 6.807 0 0 1-1.944 4.821 6.657 6.657 0 0 1-4.767 1.997l.01.01z"/></symbol></defs></svg>