<svg aria-hidden="true" style="position: absolute; width: 0; height: 0; overflow: hidden;" version="1.1" xmlns="http://www.w3.org/2000/svg" xmlns:xlink="http://www.w3.org/1999/xlink">
<defs>
<symbol id="icon-airbnb-logo" viewBox="0 0 101 32">
<path fill="#ff5a5f" style="fill: var(--color1, #ff5a5f)" d="M52.952 7.91c0 1.135-0.91 2.048-2.040 2.048s-2.040-0.914-2.040-2.048c0-1.135 0.879-2.048 2.040-2.048 1.161 0.032 2.040 0.945 2.040 2.048zM44.54 12.038c0 0.189 0 0.504 0 0.504s-0.973-1.261-3.045-1.261c-3.421 0-6.089 2.616-6.089 6.24 0 3.593 2.637 6.24 6.089 6.24 2.103 0 3.045-1.292 3.045-1.292v0.536c0 0.252 0.188 0.441 0.439 0.441h2.542v-11.849c0 0-2.323 0-2.542 0-0.251 0-0.439 0.221-0.439 0.441zM44.54 19.633c-0.471 0.693-1.412 1.292-2.542 1.292-2.009 0-3.547-1.261-3.547-3.403s1.538-3.403 3.547-3.403c1.099 0 2.103 0.63 2.542 1.292v4.223zM49.405 11.597h3.013v11.849h-3.013v-11.849zM94.416 11.282c-2.072 0-3.045 1.261-3.045 1.261v-6.649h-3.013v17.553c0 0 2.323 0 2.543 0 0.251 0 0.44-0.221 0.44-0.441v-0.536c0 0 0.973 1.292 3.045 1.292 3.421 0 6.089-2.647 6.089-6.24s-2.668-6.24-6.058-6.24zM93.913 20.893c-1.162 0-2.072-0.599-2.543-1.292v-4.223c0.471-0.63 1.475-1.292 2.543-1.292 2.009 0 3.547 1.261 3.547 3.403s-1.538 3.403-3.547 3.403zM86.788 16.418v7.059h-3.013v-6.712c0-1.954-0.628-2.742-2.323-2.742-0.91 0-1.852 0.473-2.448 1.166v8.256h-3.013v-11.849h2.385c0.251 0 0.439 0.221 0.439 0.441v0.504c0.879-0.914 2.040-1.261 3.202-1.261 1.318 0 2.417 0.378 3.296 1.135 1.067 0.882 1.475 2.017 1.475 4.002zM68.677 11.282c-2.072 0-3.045 1.261-3.045 1.261v-6.649h-3.013v17.553c0 0 2.323 0 2.542 0 0.251 0 0.44-0.221 0.44-0.441v-0.536c0 0 0.973 1.292 3.045 1.292 3.421 0 6.089-2.647 6.089-6.24 0.031-3.592-2.637-6.24-6.058-6.24zM68.175 20.893c-1.162 0-2.072-0.599-2.543-1.292v-4.223c0.471-0.63 1.475-1.292 2.543-1.292 2.009 0 3.547 1.261 3.547 3.403s-1.538 3.403-3.547 3.403zM60.014 11.282c0.91 0 1.381 0.158 1.381 0.158v2.805c0 0-2.511-0.851-4.081 0.945v8.288h-3.013v-11.88c0 0 2.323 0 2.542 0 0.251 0 0.439 0.221 0.439 0.441v0.504c0.565-0.662 1.789-1.261 2.731-1.261zM28.72 22.374c-0.157-0.378-0.314-0.788-0.471-1.134-0.251-0.567-0.502-1.103-0.722-1.607l-0.031-0.032c-2.166-4.727-4.489-9.517-6.937-14.244l-0.094-0.189c-0.251-0.473-0.502-0.977-0.753-1.481-0.314-0.567-0.628-1.166-1.13-1.733-1.004-1.261-2.448-1.954-3.986-1.954-1.569 0-2.982 0.693-4.018 1.891-0.471 0.567-0.816 1.166-1.13 1.733-0.251 0.504-0.502 1.008-0.753 1.481l-0.094 0.189c-2.417 4.727-4.771 9.517-6.937 14.244l-0.031 0.063c-0.22 0.504-0.471 1.040-0.722 1.607-0.157 0.347-0.314 0.725-0.471 1.134-0.408 1.166-0.534 2.269-0.377 3.403 0.345 2.364 1.915 4.349 4.080 5.231 0.816 0.347 1.664 0.504 2.542 0.504 0.251 0 0.565-0.032 0.816-0.063 1.036-0.126 2.103-0.473 3.139-1.071 1.287-0.725 2.511-1.765 3.892-3.277 1.381 1.513 2.637 2.553 3.892 3.277 1.036 0.599 2.103 0.945 3.139 1.071 0.251 0.032 0.565 0.063 0.816 0.063 0.879 0 1.758-0.158 2.542-0.504 2.197-0.882 3.735-2.899 4.080-5.231 0.251-1.103 0.126-2.206-0.282-3.372zM14.564 24.013c-1.695-2.143-2.794-4.16-3.17-5.861-0.157-0.725-0.188-1.355-0.094-1.922 0.063-0.504 0.251-0.945 0.502-1.324 0.596-0.851 1.601-1.387 2.762-1.387s2.197 0.504 2.762 1.387c0.251 0.378 0.439 0.819 0.502 1.324 0.094 0.567 0.063 1.229-0.094 1.922-0.377 1.67-1.475 3.687-3.17 5.861zM27.088 25.494c-0.22 1.639-1.318 3.057-2.856 3.687-0.753 0.315-1.569 0.41-2.386 0.315-0.785-0.095-1.569-0.347-2.386-0.819-1.13-0.63-2.26-1.607-3.578-3.057 2.072-2.553 3.327-4.885 3.798-6.964 0.22-0.977 0.251-1.859 0.157-2.679-0.126-0.788-0.408-1.513-0.848-2.143-0.973-1.418-2.605-2.237-4.426-2.237s-3.453 0.851-4.426 2.237c-0.439 0.63-0.722 1.355-0.847 2.143-0.126 0.819-0.094 1.733 0.157 2.679 0.471 2.080 1.758 4.443 3.798 6.996-1.287 1.45-2.448 2.427-3.578 3.057-0.816 0.473-1.601 0.725-2.386 0.819-0.847 0.095-1.664-0.032-2.385-0.315-1.538-0.63-2.637-2.048-2.856-3.687-0.094-0.788-0.031-1.576 0.283-2.458 0.094-0.315 0.251-0.63 0.408-1.008 0.22-0.504 0.471-1.040 0.722-1.576l0.031-0.063c2.166-4.695 4.488-9.485 6.905-14.149l0.094-0.189c0.251-0.473 0.502-0.977 0.753-1.45 0.251-0.504 0.534-0.977 0.879-1.387 0.659-0.756 1.538-1.166 2.511-1.166s1.852 0.41 2.511 1.166c0.345 0.41 0.628 0.882 0.879 1.387 0.251 0.473 0.502 0.977 0.753 1.45l0.094 0.189c2.386 4.696 4.708 9.485 6.874 14.181v0.032c0.251 0.504 0.471 1.071 0.722 1.576 0.157 0.378 0.314 0.693 0.408 1.008 0.251 0.819 0.345 1.607 0.22 2.427z"></path>
</symbol>
<symbol id="icon-amazon-logo" viewBox="0 0 106 32">
<path fill="#f90" style="fill: var(--color2, #f90)" d="M65.349 24.795c-6.121 4.507-14.994 6.911-22.633 6.911-10.711 0-20.354-3.957-27.649-10.538-0.573-0.518-0.060-1.223 0.628-0.82 7.873 4.575 17.607 7.328 27.663 7.328 6.782 0 14.242-1.401 21.101-4.31 1.036-0.44 1.903 0.678 0.89 1.429z"></path>
<path fill="#f90" style="fill: var(--color2, #f90)" d="M67.894 21.887c-0.779-0.998-5.172-0.472-7.144-0.238-0.601 0.073-0.692-0.449-0.151-0.824 3.499-2.459 9.239-1.75 9.909-0.925 0.669 0.829-0.174 6.577-3.462 9.32-0.504 0.421-0.986 0.197-0.761-0.362 0.738-1.841 2.393-5.968 1.609-6.971z"></path>
<path fill="#000" style="fill: var(--color3, #000)" d="M60.888 3.462v-2.391c0-0.362 0.275-0.605 0.605-0.605h10.716c0.344 0 0.619 0.247 0.619 0.605v2.047c-0.005 0.344-0.293 0.792-0.807 1.502l-5.553 7.919c2.063-0.050 4.241 0.256 6.112 1.31 0.422 0.238 0.536 0.586 0.569 0.93v2.551c0 0.348-0.385 0.756-0.789 0.545-3.297-1.727-7.676-1.914-11.321 0.018-0.371 0.202-0.761-0.202-0.761-0.55v-2.423c0-0.389 0.005-1.053 0.394-1.644l6.433-9.215h-5.599c-0.344 0-0.619-0.243-0.619-0.6z"></path>
<path fill="#000" style="fill: var(--color3, #000)" d="M21.798 18.379h-3.26c-0.312-0.023-0.559-0.256-0.582-0.554v-16.712c0-0.334 0.28-0.6 0.628-0.6h3.040c0.316 0.014 0.569 0.256 0.592 0.559v2.185h0.060c0.793-2.111 2.283-3.096 4.292-3.096 2.040 0 3.315 0.985 4.232 3.096 0.789-2.111 2.581-3.096 4.503-3.096 1.366 0 2.861 0.563 3.774 1.827 1.032 1.406 0.821 3.449 0.821 5.239l-0.005 10.547c0 0.334-0.28 0.605-0.628 0.605h-3.256c-0.325-0.023-0.587-0.284-0.587-0.605v-8.857c0-0.705 0.064-2.464-0.092-3.133-0.243-1.122-0.972-1.438-1.917-1.438-0.789 0-1.614 0.527-1.949 1.369s-0.303 2.253-0.303 3.201v8.857c0 0.334-0.28 0.605-0.628 0.605h-3.256c-0.33-0.023-0.587-0.284-0.587-0.605l-0.005-8.857c0-1.864 0.307-4.607-2.008-4.607-2.343 0-2.251 2.675-2.251 4.607v8.857c0 0.334-0.28 0.605-0.628 0.605z"></path>
<path fill="#000" style="fill: var(--color3, #000)" d="M82.053 0.16c4.837 0 7.455 4.149 7.455 9.425 0 5.097-2.893 9.141-7.455 9.141-4.751 0-7.337-4.149-7.337-9.32 0-5.203 2.619-9.247 7.337-9.247zM82.081 3.572c-2.403 0-2.554 3.27-2.554 5.308 0 2.043-0.032 6.403 2.526 6.403 2.526 0 2.646-3.517 2.646-5.661 0-1.411-0.060-3.096-0.486-4.433-0.367-1.163-1.096-1.617-2.132-1.617z"></path>
<path fill="#000" style="fill: var(--color3, #000)" d="M95.781 18.379h-3.246c-0.326-0.023-0.587-0.284-0.587-0.605l-0.004-16.717c0.028-0.307 0.298-0.545 0.628-0.545h3.021c0.284 0.014 0.519 0.206 0.583 0.467v2.556h0.060c0.912-2.285 2.192-3.375 4.443-3.375 1.463 0 2.889 0.527 3.806 1.969 0.853 1.337 0.853 3.586 0.853 5.203v10.52c-0.036 0.293-0.307 0.527-0.628 0.527h-3.269c-0.298-0.023-0.546-0.243-0.578-0.527v-9.077c0-1.827 0.211-4.502-2.041-4.502-0.793 0-1.523 0.531-1.884 1.337-0.458 1.021-0.519 2.038-0.519 3.165v8.999c-0.004 0.334-0.289 0.605-0.637 0.605z"></path>
<path fill="#000" style="fill: var(--color3, #000)" d="M52.345 10.396c0 1.269 0.032 2.327-0.61 3.453-0.518 0.916-1.343 1.479-2.256 1.479-1.252 0-1.985-0.953-1.985-2.359 0-2.775 2.49-3.279 4.851-3.279v0.705zM55.633 18.333c-0.216 0.192-0.527 0.206-0.77 0.078-1.082-0.898-1.279-1.314-1.871-2.171-1.788 1.823-3.058 2.368-5.374 2.368-2.747 0-4.879-1.69-4.879-5.075 0-2.643 1.431-4.442 3.476-5.322 1.77-0.779 4.241-0.916 6.131-1.131v-0.421c0-0.774 0.060-1.69-0.399-2.359-0.394-0.6-1.155-0.847-1.83-0.847-1.243 0-2.348 0.637-2.618 1.956-0.055 0.293-0.27 0.582-0.569 0.595l-3.159-0.339c-0.266-0.060-0.564-0.275-0.486-0.682 0.724-3.829 4.191-4.983 7.291-4.983 1.587 0 3.659 0.421 4.911 1.621 1.587 1.479 1.435 3.453 1.435 5.601v5.075c0 1.525 0.633 2.194 1.229 3.018 0.206 0.293 0.252 0.646-0.014 0.866-0.665 0.554-1.848 1.585-2.499 2.162l-0.005-0.009z"></path>
<path fill="#000" style="fill: var(--color3, #000)" d="M9.606 10.396c0 1.269 0.032 2.327-0.61 3.453-0.518 0.916-1.339 1.479-2.256 1.479-1.252 0-1.981-0.953-1.981-2.359 0-2.775 2.49-3.279 4.847-3.279v0.705zM12.894 18.333c-0.215 0.192-0.527 0.206-0.77 0.078-1.082-0.898-1.275-1.314-1.871-2.171-1.788 1.823-3.054 2.368-5.374 2.368-2.742 0-4.879-1.69-4.879-5.075 0-2.643 1.435-4.442 3.476-5.322 1.77-0.779 4.241-0.916 6.13-1.131v-0.421c0-0.774 0.060-1.69-0.394-2.359-0.399-0.6-1.16-0.847-1.829-0.847-1.243 0-2.352 0.637-2.623 1.956-0.055 0.293-0.271 0.582-0.564 0.595l-3.164-0.339c-0.266-0.060-0.559-0.275-0.486-0.682 0.729-3.829 4.191-4.983 7.291-4.983 1.586 0 3.659 0.421 4.911 1.621 1.586 1.479 1.435 3.453 1.435 5.601v5.075c0 1.525 0.633 2.194 1.229 3.018 0.211 0.293 0.257 0.646-0.009 0.866-0.665 0.554-1.848 1.585-2.499 2.162l-0.009-0.009z"></path>
</symbol>
<symbol id="icon-box-search" viewBox="0 0 32 32">
<path fill="#2639ed" style="fill: var(--color4, #2639ed)" d="M15.999 17.733c-0.173 0-0.347-0.040-0.507-0.133l-11.773-6.813c-0.48-0.28-0.64-0.893-0.36-1.373s0.88-0.64 1.373-0.36l11.267 6.52 11.2-6.48c0.48-0.28 1.093-0.107 1.373 0.36 0.28 0.48 0.107 1.093-0.36 1.373l-11.693 6.773c-0.173 0.080-0.347 0.133-0.52 0.133z"></path>
<path fill="#2639ed" style="fill: var(--color4, #2639ed)" d="M16 29.813c-0.547 0-1-0.453-1-1v-12.093c0-0.547 0.453-1 1-1s1 0.453 1 1v12.093c0 0.547-0.453 1-1 1z"></path>
<path fill="#2639ed" style="fill: var(--color4, #2639ed)" d="M15.999 30.334c-1.213 0-2.373-0.28-3.253-0.773l-7.12-3.947c-1.933-1.067-3.453-3.64-3.453-5.854v-7.547c0-2.213 1.52-4.773 3.453-5.853l7.12-3.947c1.813-1.013 4.667-1.013 6.493 0l7.12 3.947c1.933 1.067 3.453 3.64 3.453 5.853v4.88c0 0.547-0.453 1-1 1s-1-0.453-1-1v-4.88c0-1.467-1.133-3.387-2.413-4.093l-7.12-3.947c-1.213-0.68-3.333-0.68-4.547 0l-7.12 3.947c-1.293 0.72-2.413 2.627-2.413 4.093v7.547c0 1.467 1.133 3.387 2.413 4.093l7.12 3.947c1.173 0.653 3.387 0.653 4.547 0 0.48-0.267 1.093-0.093 1.36 0.387s0.093 1.093-0.387 1.36c-0.88 0.507-2.040 0.787-3.253 0.787z"></path>
<path fill="#2639ed" style="fill: var(--color4, #2639ed)" d="M25.6 29.533c-2.907 0-5.267-2.36-5.267-5.267s2.36-5.267 5.267-5.267 5.267 2.36 5.267 5.267c0 2.907-2.36 5.267-5.267 5.267zM25.6 21c-1.8 0-3.267 1.467-3.267 3.267s1.467 3.267 3.267 3.267c1.8 0 3.267-1.467 3.267-3.267s-1.467-3.267-3.267-3.267z"></path>
<path fill="#2639ed" style="fill: var(--color4, #2639ed)" d="M30.666 30.333c-0.253 0-0.507-0.093-0.707-0.293l-1.333-1.333c-0.387-0.387-0.387-1.027 0-1.413s1.027-0.387 1.413 0l1.333 1.333c0.387 0.387 0.387 1.027 0 1.413-0.2 0.2-0.453 0.293-0.707 0.293z"></path>
</symbol>
<symbol id="icon-chart-square" viewBox="0 0 32 32">
<path fill="#00da71" style="fill: var(--color5, #00da71)" d="M13.48 24.2h-5.053c-0.547 0-1-0.453-1-1v-6.827c0-1.387 1.133-2.52 2.52-2.52h3.533c0.547 0 1 0.453 1 1v8.333c0 0.56-0.453 1.014-1 1.014zM9.427 22.2h3.053v-6.333h-2.533c-0.28 0-0.52 0.227-0.52 0.52v5.814z"></path>
<path fill="#00da71" style="fill: var(--color5, #00da71)" d="M18.519 24.2h-5.053c-0.547 0-1-0.453-1-1v-12.88c0-1.387 1.133-2.52 2.52-2.52h2.027c1.387 0 2.52 1.133 2.52 2.52v12.88c-0.013 0.547-0.453 1-1.013 1zM14.479 22.2h3.053v-11.88c0-0.28-0.227-0.52-0.52-0.52h-2.027c-0.28 0-0.52 0.227-0.52 0.52v11.88h0.013z"></path>
<path fill="#00da71" style="fill: var(--color5, #00da71)" d="M23.574 24.2h-5.053c-0.547 0-1-0.453-1-1v-6.067c0-0.547 0.453-1 1-1h3.533c1.387 0 2.52 1.133 2.52 2.52v4.547c0 0.547-0.44 1-1 1zM19.521 22.2h3.053v-3.547c0-0.28-0.227-0.52-0.52-0.52h-2.533v4.067z"></path>
<path fill="#00da71" style="fill: var(--color5, #00da71)" d="M20 30.333h-8c-7.24 0-10.333-3.093-10.333-10.333v-8c0-7.24 3.093-10.333 10.333-10.333h8c7.24 0 10.333 3.093 10.333 10.333v8c0 7.24-3.093 10.333-10.333 10.333zM12 3.667c-6.147 0-8.333 2.187-8.333 8.333v8c0 6.147 2.187 8.333 8.333 8.333h8c6.147 0 8.333-2.187 8.333-8.333v-8c0-6.147-2.187-8.333-8.333-8.333h-8z"></path>
</symbol>
<symbol id="icon-code" viewBox="0 0 32 32">
<path fill="#ff007a" style="fill: var(--color6, #ff007a)" d="M12.001 23.667c-0.147 0-0.307-0.040-0.44-0.107-1.027-0.52-1.907-1.293-2.547-2.253-0.533-0.8-0.533-1.827 0-2.627 0.64-0.96 1.52-1.733 2.547-2.24 0.493-0.253 1.093-0.040 1.347 0.453s0.053 1.093-0.453 1.347c-0.72 0.36-1.333 0.907-1.773 1.573-0.080 0.12-0.080 0.28 0 0.413 0.44 0.667 1.053 1.213 1.773 1.573 0.493 0.253 0.693 0.853 0.453 1.347-0.187 0.32-0.547 0.52-0.907 0.52z"></path>
<path fill="#ff007a" style="fill: var(--color6, #ff007a)" d="M20.279 23.666c-0.373 0-0.72-0.2-0.893-0.547-0.253-0.493-0.053-1.093 0.453-1.347 0.72-0.36 1.333-0.907 1.773-1.573 0.080-0.12 0.080-0.28 0-0.413-0.44-0.667-1.053-1.213-1.773-1.573-0.493-0.253-0.693-0.853-0.453-1.347 0.253-0.493 0.853-0.693 1.347-0.453 1.027 0.52 1.907 1.293 2.547 2.253 0.533 0.8 0.533 1.827 0 2.627-0.64 0.96-1.52 1.733-2.547 2.24-0.16 0.093-0.307 0.133-0.453 0.133z"></path>
<path fill="#ff007a" style="fill: var(--color6, #ff007a)" d="M20 30.333h-8c-7.24 0-10.333-3.093-10.333-10.333v-8c0-7.24 3.093-10.333 10.333-10.333h8c7.24 0 10.333 3.093 10.333 10.333v8c0 7.24-3.093 10.333-10.333 10.333zM12 3.667c-6.147 0-8.333 2.187-8.333 8.333v8c0 6.147 2.187 8.333 8.333 8.333h8c6.147 0 8.333-2.187 8.333-8.333v-8c0-6.147-2.187-8.333-8.333-8.333h-8z"></path>
<path fill="#ff007a" style="fill: var(--color6, #ff007a)" d="M2.974 11.68c-0.547 0-1-0.453-1-1s0.44-1 1-1l25.627-0.013c0.547 0 1 0.453 1 1s-0.44 1-1 1l-25.627 0.013z"></path>
</symbol>
<symbol id="icon-company-logo" viewBox="0 0 183 32">
<path d="M29.984 30.476l-10.631-27.592h-7.363l-10.673 27.592h6.701l1.737-4.674h11.831l1.696 4.674h6.702zM19.974 20.631h-8.604l4.302-11.872 4.302 11.872zM49.451 18.149v-3.268h-7.405v-8.067h-3.599v8.067h-7.446v3.268h7.446v8.398h3.599v-8.398h7.405zM74.039 30.724c5.13 0 9.846-2.896 9.846-8.274 0-5.502-4.178-6.825-9.101-8.77-3.682-1.406-6.329-2.441-6.288-5.254s2.482-4.302 5.254-4.302c2.192 0 4.716 1.034 7.074 2.978l2.192-2.854c-2.772-2.234-5.998-3.433-9.266-3.433-5.047 0-8.977 3.392-8.977 7.777 0 5.171 4.426 7.032 8.77 8.646 3.93 1.489 6.577 2.358 6.577 5.626 0 2.854-2.441 4.509-6.040 4.509-2.854 0-5.998-1.324-8.108-3.971l-2.316 2.772c2.937 3.144 6.701 4.55 10.383 4.55zM94.725 30.724c2.399 0 3.764-0.579 4.881-1.241l-0.869-2.937c-0.993 0.538-2.234 1.034-3.433 1.034-1.903 0-2.441-1.158-2.441-3.599v-10.755h6.66v-2.896h-6.66v-7.239l-3.351 0.372v6.867h-2.606v2.896h2.606v11.252c0 4.054 1.655 6.246 5.212 6.246zM111.12 30.724c2.647 0 5.13-1.324 6.66-3.723h0.041v3.475h3.351v-20.146h-3.351v9.763c0 4.798-2.772 7.57-5.998 7.57-3.185 0-4.923-1.737-4.923-6.288v-11.045h-3.351v11.996c0 5.75 2.937 8.398 7.57 8.398zM135.797 30.724c3.268 0 5.833-1.531 7.281-3.971h0.041v3.723h3.227v-30.446h-3.351v13.899h-0.041c-1.53-2.441-4.137-3.847-7.198-3.847-5.667 0-9.845 4.509-9.845 10.466 0 6.122 4.302 10.176 9.887 10.176zM136.252 27.663c-4.095 0-6.908-3.061-6.908-7.115 0-4.468 3.102-7.405 6.95-7.405 4.054 0 6.826 3.268 6.826 7.405 0 4.261-3.061 7.115-6.867 7.115zM154.548 6.649c1.365 0 2.441-1.076 2.441-2.399s-1.076-2.399-2.441-2.399c-1.365 0-2.441 1.076-2.441 2.399s1.075 2.399 2.441 2.399zM152.852 10.33v20.146h3.351v-20.146h-3.351zM171.886 30.724c5.957 0 10.383-4.178 10.383-10.3s-4.427-10.342-10.383-10.342c-6.246 0-10.424 4.55-10.424 10.342s4.178 10.3 10.424 10.3zM171.886 27.663c-4.178 0-6.991-3.227-6.991-7.239s2.772-7.281 6.991-7.281c3.889 0 6.95 2.978 6.95 7.281s-3.102 7.239-6.95 7.239z"></path>
</symbol>
<symbol id="icon-ellipse" viewBox="0 0 32 32">
<path fill="#e7f0fc" style="fill: var(--color7, #e7f0fc)" d="M32 16c0 8.837-7.163 16-16 16s-16-7.163-16-16c0-8.837 7.163-16 16-16s16 7.163 16 16z"></path>
</symbol>
<symbol id="icon-empty-wallet" viewBox="0 0 32 32">
<path fill="#f90" style="fill: var(--color2, #f90)" d="M23.653 30.333h-15.307c-3.32 0-6.013-2.693-6.013-6.013v-8.973c0-3.32 2.693-6.013 6.013-6.013h15.307c3.32 0 6.013 2.693 6.013 6.013v1.92c0 0.547-0.453 1-1 1h-2.693c-0.467 0-0.893 0.173-1.2 0.493l-0.013 0.013c-0.373 0.36-0.547 0.853-0.507 1.36 0.080 0.88 0.92 1.587 1.88 1.587h2.533c0.547 0 1 0.453 1 1v1.587c0 3.333-2.693 6.027-6.013 6.027zM8.347 11.333c-2.213 0-4.013 1.8-4.013 4.013v8.973c0 2.213 1.8 4.013 4.013 4.013h15.307c2.213 0 4.013-1.8 4.013-4.013v-0.587h-1.533c-2.013 0-3.72-1.493-3.88-3.413-0.107-1.093 0.293-2.173 1.093-2.96 0.693-0.707 1.627-1.093 2.627-1.093h1.693v-0.92c0-2.213-1.8-4.013-4.013-4.013h-15.307z"></path>
<path fill="#f90" style="fill: var(--color2, #f90)" d="M3.333 17.547c-0.547 0-1-0.453-1-1v-6.093c0-1.987 1.253-3.787 3.107-4.493l10.587-4c1.093-0.413 2.307-0.267 3.253 0.4 0.96 0.667 1.52 1.747 1.52 2.907v5.067c0 0.547-0.453 1-1 1s-1-0.453-1-1v-5.067c0-0.507-0.24-0.973-0.667-1.267s-0.933-0.36-1.413-0.173l-10.587 4c-1.080 0.413-1.813 1.467-1.813 2.627v6.093c0.013 0.56-0.44 1-0.987 1z"></path>
<path fill="#f90" style="fill: var(--color2, #f90)" d="M26.134 23.734c-2.013 0-3.72-1.493-3.88-3.413-0.107-1.107 0.293-2.187 1.093-2.973 0.68-0.693 1.613-1.080 2.613-1.080h2.773c1.32 0.040 2.333 1.080 2.333 2.36v2.747c0 1.28-1.013 2.32-2.293 2.36h-2.64zM28.707 18.267h-2.733c-0.467 0-0.893 0.173-1.2 0.493-0.387 0.373-0.573 0.88-0.52 1.387 0.080 0.88 0.92 1.587 1.88 1.587h2.613c0.173 0 0.333-0.16 0.333-0.36v-2.747c0-0.2-0.16-0.347-0.373-0.36z"></path>
<path fill="#f90" style="fill: var(--color2, #f90)" d="M18.667 17h-9.333c-0.547 0-1-0.453-1-1s0.453-1 1-1h9.333c0.547 0 1 0.453 1 1s-0.453 1-1 1z"></path>
</symbol>
<symbol id="icon-facebook" viewBox="0 0 32 32">
<path fill="#3b5998" style="fill: var(--color8, #3b5998)" d="M16 32c8.837 0 16-7.163 16-16s-7.163-16-16-16c-8.837 0-16 7.163-16 16s7.163 16 16 16z"></path>
<path fill="#fff" style="fill: var(--color9, #fff)" d="M20.022 16.626h-2.855v10.459h-4.326v-10.459h-2.057v-3.676h2.057v-2.379c0-1.701 0.808-4.365 4.364-4.365l3.204 0.013v3.568h-2.325c-0.381 0-0.918 0.191-0.918 1.002v2.163h3.233l-0.378 3.672z"></path>
</symbol>
<symbol id="icon-google-logo" viewBox="0 0 97 32">
<path fill="#ff302f" style="fill: var(--color10, #ff302f)" d="M93.309 19.313l2.671 1.781c-0.867 1.277-2.941 3.469-6.527 3.469-4.452 0-7.769-3.445-7.769-7.828 0-4.664 3.352-7.828 7.394-7.828 4.067 0 6.058 3.234 6.703 4.98l0.351 0.891-10.476 4.336c0.797 1.57 2.039 2.367 3.796 2.367s2.977-0.867 3.855-2.168zM85.095 16.489l6.996-2.906c-0.387-0.973-1.535-1.664-2.906-1.664-1.746 0-4.172 1.547-4.090 4.57z"></path>
<path fill="#20b15a" style="fill: var(--color11, #20b15a)" d="M76.635 0.928h3.375v22.92h-3.375v-22.92z"></path>
<path fill="#3686f7" style="fill: var(--color12, #3686f7)" d="M71.315 9.517h3.258v13.921c0 5.777-3.41 8.156-7.441 8.156-3.797 0-6.082-2.555-6.937-4.629l2.988-1.242c0.539 1.277 1.84 2.789 3.949 2.789 2.589 0 4.183-1.605 4.183-4.605v-1.125h-0.117c-0.773 0.937-2.25 1.781-4.125 1.781-3.914 0-7.499-3.41-7.499-7.804 0-4.418 3.586-7.863 7.499-7.863 1.864 0 3.352 0.832 4.125 1.746h0.117v-1.125zM71.549 16.759c0-2.765-1.84-4.781-4.184-4.781-2.367 0-4.359 2.015-4.359 4.781 0 2.73 1.992 4.711 4.359 4.711 2.344 0.012 4.184-1.98 4.184-4.711z"></path>
<path fill="#ff302f" style="fill: var(--color10, #ff302f)" d="M41.047 16.7c0 4.511-3.515 7.828-7.828 7.828s-7.828-3.328-7.828-7.828c0-4.535 3.515-7.839 7.828-7.839s7.828 3.304 7.828 7.839zM37.626 16.7c0-2.812-2.039-4.746-4.406-4.746s-4.406 1.933-4.406 4.746c0 2.789 2.039 4.746 4.406 4.746s4.406-1.957 4.406-4.746z"></path>
<path fill="#ffba40" style="fill: var(--color13, #ffba40)" d="M58.144 16.735c0 4.511-3.515 7.828-7.828 7.828s-7.828-3.316-7.828-7.828c0-4.535 3.515-7.828 7.828-7.828s7.828 3.281 7.828 7.828zM54.71 16.735c0-2.812-2.039-4.746-4.406-4.746s-4.406 1.933-4.406 4.746c0 2.789 2.039 4.746 4.406 4.746 2.379 0 4.406-1.969 4.406-4.746z"></path>
<path fill="#3686f7" style="fill: var(--color12, #3686f7)" d="M12.526 21.129c-4.91 0-8.753-3.961-8.753-8.87s3.843-8.87 8.753-8.87c2.648 0 4.582 1.043 6.011 2.379l2.355-2.355c-1.992-1.91-4.652-3.363-8.367-3.363-6.726 0-12.386 5.484-12.386 12.21s5.66 12.21 12.386 12.21c3.633 0 6.375-1.195 8.519-3.422 2.203-2.203 2.883-5.296 2.883-7.804 0-0.785-0.094-1.594-0.199-2.191h-11.202v3.258h7.98c-0.234 2.039-0.879 3.433-1.828 4.383-1.148 1.16-2.965 2.437-6.152 2.437z"></path>
</symbol>
<symbol id="icon-linkedin" viewBox="0 0 32 32">
<path fill="#007ab9" style="fill: var(--color14, #007ab9)" d="M16 32c8.837 0 16-7.163 16-16s-7.163-16-16-16c-8.837 0-16 7.163-16 16s7.163 16 16 16z"></path>
<path fill="#f1f2f2" style="fill: var(--color15, #f1f2f2)" d="M25.56 17.287v6.596h-3.824v-6.154c0-1.545-0.552-2.601-1.937-2.601-1.057 0-1.684 0.71-1.962 1.398-0.101 0.246-0.127 0.587-0.127 0.932v6.424h-3.825c0 0 0.051-10.423 0-11.502h3.825v1.63c-0.008 0.013-0.018 0.025-0.025 0.038h0.025v-0.038c0.508-0.782 1.415-1.9 3.447-1.9 2.516 0 4.403 1.644 4.403 5.176zM9.884 6.836c-1.308 0-2.164 0.859-2.164 1.987 0 1.104 0.831 1.988 2.114 1.988h0.025c1.334 0 2.163-0.884 2.163-1.988-0.025-1.128-0.829-1.987-2.138-1.987zM7.947 23.884h3.823v-11.503h-3.823v11.503z"></path>
</symbol>
<symbol id="icon-twitter" viewBox="0 0 32 32">
<path fill="#55acee" style="fill: var(--color16, #55acee)" d="M16 32c8.836 0 16-7.163 16-16s-7.163-16-16-16-16 7.163-16 16c0 8.837 7.163 16 16 16z"></path>
<path fill="#f1f2f2" style="fill: var(--color15, #f1f2f2)" d="M25.801 11.499c-0.686 0.304-1.423 0.51-2.197 0.601 0.79-0.473 1.396-1.222 1.682-2.115-0.739 0.438-1.558 0.756-2.429 0.928-0.698-0.743-1.692-1.207-2.792-1.207-2.112 0-3.824 1.713-3.824 3.824 0 0.3 0.034 0.592 0.1 0.872-3.178-0.159-5.997-1.682-7.883-3.996-0.329 0.565-0.518 1.222-0.518 1.923 0 1.326 0.676 2.498 1.701 3.183-0.627-0.020-1.217-0.192-1.732-0.479-0 0.016-0 0.033-0 0.049 0 1.853 1.319 3.399 3.068 3.75-0.321 0.088-0.659 0.134-1.007 0.134-0.247 0-0.486-0.024-0.72-0.068 0.487 1.519 1.899 2.625 3.573 2.656-1.309 1.026-2.958 1.637-4.75 1.637-0.308 0-0.613-0.018-0.912-0.054 1.692 1.085 3.702 1.718 5.862 1.718 7.035 0 10.882-5.827 10.882-10.882 0-0.166-0.004-0.331-0.011-0.495 0.748-0.539 1.396-1.212 1.909-1.979z"></path>
</symbol>
<symbol id="icon-uber-eats-logo" viewBox="0 0 191 32">
<path fill="#262626" style="fill: var(--color17, #262626)" d="M88.164 12.762c-2.819 0-4.819 2.224-4.819 5.638v12.523h-4.304v-22.042h4.252v2.692c0.524-0.892 1.276-1.627 2.177-2.127s1.918-0.749 2.946-0.72h1.546v4.037h-1.799zM76.067 19.902c0-6.573-4.638-11.489-10.916-11.489-1.483 0.010-2.95 0.316-4.315 0.9s-2.603 1.434-3.642 2.502c-1.038 1.068-1.857 2.332-2.409 3.72s-0.826 2.872-0.807 4.368c0 6.568 5.025 11.536 11.581 11.536 1.831 0.035 3.644-0.375 5.285-1.194s3.064-2.024 4.146-3.514l-3.123-2.307c-0.717 1.008-1.665 1.827-2.763 2.385s-2.315 0.84-3.545 0.821c-1.752-0.008-3.443-0.649-4.767-1.806s-2.192-2.754-2.449-4.502h17.735l-0.010-1.419zM58.436 17.88c0.768-3.362 3.432-5.638 6.664-5.638s5.891 2.276 6.613 5.638h-13.277zM40.345 8.413c-1.438 0.001-2.862 0.29-4.189 0.849s-2.531 1.378-3.542 2.409v-11.021h-4.304v30.273h4.252v-2.796c2.060 2.101 4.863 3.291 7.793 3.31 1.52 0.033 3.031-0.241 4.445-0.805s2.701-1.407 3.788-2.479c1.086-1.072 1.949-2.352 2.539-3.765s0.893-2.93 0.893-4.463c0-1.533-0.304-3.050-0.893-4.463s-1.452-2.693-2.539-3.765c-1.086-1.072-2.374-1.915-3.788-2.479s-2.925-0.838-4.445-0.805h-0.010zM40.036 27.561c-1.5 0.007-2.968-0.435-4.219-1.27s-2.226-2.027-2.804-3.422c-0.578-1.396-0.731-2.933-0.441-4.417s1.011-2.847 2.071-3.917c1.060-1.070 2.411-1.799 3.883-2.093s2.996-0.142 4.382 0.439c1.385 0.581 2.568 1.563 3.398 2.822s1.271 2.739 1.266 4.252c0.001 0.998-0.193 1.986-0.571 2.907s-0.934 1.759-1.634 2.464c-0.7 0.705-1.531 1.263-2.446 1.644s-1.895 0.574-2.884 0.572v0.021zM12.462 27.353c4.154 0 7.38-3.211 7.38-8.023v-18.68h4.458v30.273h-4.407v-2.863c-1.030 1.073-2.264 1.924-3.629 2.502s-2.832 0.87-4.313 0.86c-6.406 0-11.339-4.708-11.339-11.847v-18.925h4.541v18.706c0 4.838 3.092 7.997 7.308 7.997z"></path>
<path fill="#5fb709" style="fill: var(--color18, #5fb709)" d="M100.667 0.65h21.064v5.196h-15.374v7.379h14.947v5.020h-14.947v7.503h15.374v5.196h-21.064v-30.294zM179.905 31.489c6.457 0 10.096-3.118 10.096-7.399 0-3.050-2.154-5.326-6.664-6.313l-4.767-0.982c-2.768-0.52-3.639-1.039-3.639-2.078 0-1.346 1.335-2.172 3.793-2.172 2.664 0 4.639 0.722 5.154 3.206h5.586c-0.304-4.677-3.639-7.763-10.401-7.763-5.845 0-9.946 2.432-9.946 7.145 0 3.258 2.257 5.378 7.128 6.412l5.329 1.242c2.103 0.416 2.664 0.987 2.664 1.865 0 1.398-1.587 2.276-4.154 2.276-3.226 0-5.071-0.722-5.787-3.206h-5.618c0.819 4.666 4.253 7.768 11.226 7.768zM167.056 30.923h-6.046c-3.793 0-5.896-2.38-5.896-5.383v-11.899h-4.253v-5.072h4.273v-6.365h5.617v6.365h6.304v5.072h-6.304v10.45c0 1.19 0.819 1.762 2.103 1.762h4.201v5.072zM142.832 8.579v2.016c-1.978-1.686-4.487-2.607-7.077-2.598-1.551-0.033-3.091 0.247-4.534 0.822s-2.755 1.435-3.864 2.529c-1.109 1.094-1.989 2.4-2.59 3.841s-0.911 2.989-0.911 4.553c0 1.564 0.31 3.112 0.911 4.553s1.481 2.747 2.59 3.841c1.109 1.094 2.422 1.954 3.864 2.529s2.983 0.855 4.534 0.822c2.591 0.011 5.101-0.91 7.077-2.598v2.021h5.602v-22.344l-5.602 0.010zM136.219 26.584c-1.344 0.015-2.662-0.372-3.786-1.114s-2.006-1.804-2.53-3.051c-0.525-1.247-0.67-2.624-0.417-3.955 0.254-1.331 0.894-2.556 1.839-3.519s2.153-1.621 3.47-1.891c1.318-0.27 2.685-0.138 3.927 0.378 1.243 0.516 2.305 1.392 3.054 2.518 0.747 1.126 1.146 2.451 1.145 3.806 0.008 0.893-0.16 1.779-0.494 2.607s-0.826 1.58-1.45 2.214-1.367 1.137-2.185 1.48c-0.818 0.343-1.696 0.518-2.582 0.517l0.010 0.010z"></path>
</symbol>
</defs>
</svg>
